# AST/ASF file generated using VICON BodyLanguage
# -----------------------------------------------
:version 1.10
:name VICON
:units
  mass 1.0
  length 0.45
  angle deg
:documentation
   .ast/.asf automatically generated from VICON data using
   VICON BodyBuilder and BodyLanguage model FoxedUp or BRILLIANT.MOD
:root
   order TX TY TZ RX RY RZ
   axis XYZ
   position 0 0 0  
   orientation 0 0 0 
:bonedata
  begin
     id 1 
     name lhipjoint
     direction 0.62366 -0.717238 0.310833 
     length 2.53602 
     axis 0 0 0  XYZ
  end
  begin
     id 2 
     name lfemur
     direction 0.34202 -0.939693 0  
     length 7.40817  
     axis 0 0 20  XYZ
    dof rx ry rz
    limits (-160.0 20.0)
           (-70.0 70.0)
           (-60.0 70.0)
  end
  begin
     id 3 
     name ltibia
     direction 0.34202 -0.939693 0   
     length 7.7045   
     axis 0 0 20   XYZ
    dof rx
    limits (-10.0 170.0)
  end
  begin
     id 4 
     name lfoot
     direction 0.0673888 -0.185149 0.980397   
     length 2.09456   
     axis -90 7.62852e-016 20   XYZ
    dof rx rz
    limits (-45.0 90.0)
           (-70.0 20.0)
  end
  begin
     id 5 
     name ltoes
     direction 1.53575e-011 -4.21994e-011 1   
     length 1.05543   
     axis -90 7.62852e-016 20   XYZ
    dof rx
    limits (-90.0 20.0)
  end
  begin
     id 6 
     name rhipjoint
     direction -0.489018 -0.800347 0.346851   
     length 2.27268  
     axis 0 0 0  XYZ 
  end
  begin
     id 7 
     name rfemur
     direction -0.34202 -0.939693 0   
     length 7.55487   
     axis 0 0 -20   XYZ
    dof rx ry rz
    limits (-160.0 20.0)
           (-70.0 70.0)
           (-70.0 60.0)
  end
  begin
     id 8 
     name rtibia
     direction -0.34202 -0.939693 0   
     length 7.78969   
     axis 0 0 -20   XYZ
    dof rx
    limits (-10.0 170.0)
 end
 begin
     id 9 
     name rfoot
     direction -0.0859318 -0.236096 0.967923   
     length 2.19143  
     axis -90 -7.62852e-016 -20   XYZ
    dof rx rz
    limits (-45.0 90.0)
           (-20.0 70.0)
  end
  begin
     id 10 
     name rtoes
     direction -1.53538e-011 -4.21989e-011 1   
     length 1.09845   
     axis -90 -7.62852e-016 -20   XYZ
    dof rx
    limits (-90.0 20.0)
  end
  begin
     id 11 
     name lowerback
     direction -0.00762546 0.998978 -0.0445553   
     length 1.98161   
     axis 0 0 0   XYZ
    dof rx ry rz
    limits (-20.0 45.0)
           (-30.0 30.0)
           (-30.0 30.0)
  end
  begin
     id 12 
     name upperback
     direction 0.0422361 0.998867 -0.0219156   
     length 1.97558   
     axis 0 0 0   XYZ
    dof rx ry rz
    limits (-20.0 45.0)
           (-30.0 30.0)
           (-30.0 30.0)
  end
  begin
     id 13 
     name thorax
     direction 0.0442465 0.999021 7.47603e-005   
     length 1.97799   
     axis 0 0 0   XYZ
    dof rx ry rz
    limits (-20.0 45.0)
           (-30.0 30.0)
           (-30.0 30.0)
  end
  begin
     id 14 
     name lowerneck
     direction 0.00312169 0.984641 0.174564   
     length 1.78995   
     axis 0 0 0   XYZ
    dof rx ry rz
    limits (-20.0 45.0)
           (-30.0 30.0)
           (-30.0 30.0)
  end
  begin
     id 15 
     name upperneck
     direction -0.0383028 0.985255 -0.166749   
     length 1.83053   
     axis 0 0 0   XYZ
    dof rx ry rz
    limits (-20.0 45.0)
           (-30.0 30.0)
           (-30.0 30.0)
  end
  begin
     id 16
     name head
     direction -0.0129546 0.997059 -0.0755386  
     length 1.84088  
     axis 0 0 0   XYZ
    dof rx ry rz
    limits (-20.0 45.0)
           (-30.0 30.0)
           (-30.0 30.0)
  end
  begin
     id 17 
     name lclavicle
     direction 0.912857 0.370519 -0.171488  
     length 3.51279  
     axis 0 0 0   XYZ
    dof ry rz
    limits (-20.0 10.0)
           (0.0 20.0)
  end
  begin
     id 18 
     name lhumerus
     direction 1 -4.48962e-011 3.64361e-027   
     length 4.95663   
     axis 180 -30 -90   XYZ
    dof rx ry rz
    limits (-60.0 90.0)
           (-90.0 90.0)
           (-90.0 90.0)
  end
  begin
     id 19
     name lradius
     direction 1 -4.48974e-011 5.97202e-027   
     length 3.38177   
     axis 180 -30 -90   XYZ
    dof rx
    limits (-10.0 170.0)
  end
  begin
     id 20
     name lwrist
     direction 1 -4.4896e-011 9.83288e-027   
     length 1.69088   
     axis -9.31221e-015 90 90   XYZ
    dof ry
    limits (-180.0 0.0)
 end
  begin
     id 21 
     name lhand
     direction 1 -4.4902e-011 1.96551e-026   
     length 0.662909   
     axis -1.25475e-014 90 90   XYZ
    dof rx rz
    limits (-90.0 90.0)
           (-45.0 45.0)
  end
  begin
     id 22 
     name lfingers
     direction 1 -4.48971e-011 3.93277e-026   
     length 0.534454   
     axis -2.50945e-014 90 90   XYZ
    dof rx
    limits (0.0 90.0)
  end
  begin
     id 23
     name lthumb
     direction 0.707107 -6.34933e-011 0.707107   
     length 0.767373   
     axis -90 45 -4.80359e-014   XYZ
    dof rx rz
    limits (-45.0 45.0)
           (-45.0 45.0)
  end
  begin
     id 24 
     name rclavicle
     direction -0.900919 0.395364 -0.178976   
     length 3.40627  
     axis 0 0 0   XYZ 
    dof ry rz
    limits (-10.0 20.0)
           (-20.0 0.0)
  end
  begin
     id 25 
     name rhumerus
     direction -1 -4.48969e-011 1.03875e-027  
     length 5.08365   
     axis 180 30 90   XYZ
    dof rx ry rz
    limits (-90.0 60.0)
           (-90.0 90.0)
           (-90.0 90.0)
  end
  begin
     id 26 
     name rradius
     direction -1 -4.48951e-011 5.02733e-027   
     length 3.35984   
     axis 180 30 90   XYZ
    dof rx
    limits (-10.0 170.0)
  end
  begin
     id 27 
     name rwrist
     direction -1 -4.49011e-011 9.82828e-027   
     length 1.67992   
     axis -9.31221e-015 -90 -90   XYZ
    dof ry
    limits (-180.0 0.0)
  end
  begin
     id 28
     name rhand
     direction -1 -4.48894e-011 1.96774e-026   
     length 0.820764   
     axis -1.25475e-014 -90 -90   XYZ
    dof rx rz
    limits (-90.0 90.0)
           (-45.0 45.0)
  end
  begin
     id 29
     name rfingers
     direction -1 -4.49095e-011 3.92833e-026   
     length 0.661721   
     axis -2.50945e-014 -90 -90   XYZ
    dof rx
    limits (0.0 90.0)
  end
  begin
     id 30
     name rthumb
     direction -0.707107 -6.34881e-011 0.707107   
     length 0.950103   
     axis -90 -45 4.80359e-014   XYZ
    dof rx rz
    limits (-45.0 45.0)
           (-45.0 45.0)
  end
:hierarchy
  begin
    root lhipjoint rhipjoint lowerback
    lhipjoint lfemur
    lfemur ltibia
    ltibia lfoot
    lfoot ltoes
    rhipjoint rfemur
    rfemur rtibia
    rtibia rfoot
    rfoot rtoes
    lowerback upperback
    upperback thorax
    thorax lowerneck lclavicle rclavicle
    lowerneck upperneck
    upperneck head
    lclavicle lhumerus
    lhumerus lradius
    lradius lwrist
    lwrist lhand lthumb
    lhand lfingers
    rclavicle rhumerus
    rhumerus rradius
    rradius rwrist
    rwrist rhand rthumb
    rhand rfingers
  end

#!OML:ASF I:\golf\golf\golf 2\Subject 1\2002-09-07\Subject1.ASF
:FULLY-SPECIFIED
:DEGREES
46
root -6.26002 17.8394 0.203363 -89.8101 85.868 -105.853
lowerback 0.839601 1.55892 -1.24119
upperback 3.46929 2.10038 4.50346
thorax 2.89298 0.997357 5.39804
lowerneck -17.323 -1.44268 1.49629
upperneck 40.9046 0.754719 -3.50478
head 18.2629 0.624985 -1.57718
rclavicle -2.78299e-015 -2.22639e-014
rhumerus -4.31415 3.04899 -101.925
rradius 19.9333
rwrist -34.6374
rhand -18.1536 -11.4618
rfingers 7.12502
rthumb 8.12209 -41.2857
lclavicle -2.78299e-015 -2.22639e-014
lhumerus -8.0455 -41.4699 110.291
lradius 22.3141
lwrist 41.7073
lhand -11.9895 71.6858
lfingers 7.12502
lthumb -165.933 78.8103
rfemur -28.333 -1.49601 12.8843
rtibia 27.3117
rfoot -10.2789 -10.1065
rtoes 15.0532
lfemur -27.883 7.01267 -7.78601
ltibia 27.4943
lfoot -11.2684 -1.38858
ltoes -21.2451
47
root -6.25947 17.8401 0.200415 -89.9785 85.9022 -106.013
lowerback 0.836274 1.56104 -1.25775
upperback 3.4748 2.1031 4.49065
thorax 2.90017 0.998072 5.39431
lowerneck -17.3297 -1.43231 1.52417
upperneck 40.8932 0.765055 -3.52094
head 18.2584 0.630758 -1.58767
rclavicle -7.15625e-015 -2.70347e-014
rhumerus -4.3139 2.90258 -101.919
rradius 19.9374
rwrist -34.6165
rhand -18.0527 -11.3191
rfingers 7.12502
rthumb 8.21944 -41.1392
lclavicle -7.15625e-015 -2.70347e-014
lhumerus -8.07982 -41.8594 110.255
lradius 22.372
lwrist 42.1499
lhand -12.3107 71.8412
lfingers 7.12502
lthumb -166.242 78.6337
rfemur -28.3108 -1.49934 12.8276
rtibia 27.3028
rfoot -9.19317 -10.6062
rtoes -4.58121
lfemur -27.875 7.03017 -7.83812
ltibia 27.5032
lfoot -11.3144 -1.44054
ltoes -21.1452
48
root -6.25906 17.8388 0.196833 -90.0749 85.9185 -106.107
lowerback 0.845159 1.56648 -1.27186
upperback 3.47064 2.11074 4.50507
thorax 2.88916 1.00173 5.41715
lowerneck -17.3607 -1.43145 1.49526
upperneck 40.9138 0.784486 -3.53065
head 18.2803 0.633197 -1.58375
rclavicle -8.74653e-015 1.51076e-014
rhumerus -4.32678 2.84642 -101.895
rradius 19.9563
rwrist -34.7173
rhand -18.0247 -11.2677
rfingers 7.12502
rthumb 8.2465 -41.0867
lclavicle -8.74653e-015 1.51076e-014
lhumerus -8.10007 -42.0769 110.273
lradius 22.3478
lwrist 42.4319
lhand -12.6672 72.1072
lfingers 7.12502
lthumb -166.586 78.3447
rfemur -28.3018 -1.44377 12.7748
rtibia 27.3048
rfoot -9.27144 -10.6584
rtoes -4.27663
lfemur -27.8951 7.11712 -7.89761
ltibia 27.52
lfoot -11.3522 -1.50155
ltoes -21.4078
49
root -6.2598 17.8347 0.193335 -90.1811 85.8928 -106.229
lowerback 0.866249 1.56607 -1.25978
upperback 3.44267 2.11105 4.54565
thorax 2.84728 1.00321 5.45136
lowerneck -17.3634 -1.42492 1.43604
upperneck 40.9382 0.824927 -3.53444
head 18.2979 0.640918 -1.56698
rclavicle -1.74931e-014 3.97569e-015
rhumerus -4.35915 2.69819 -101.878
rradius 19.9477
rwrist -34.6961
rhand -18.0371 -11.1938
rfingers 7.12502
rthumb 8.23449 -41.0134
lclavicle -1.74931e-014 3.97569e-015
lhumerus -8.12378 -42.1529 110.335
lradius 22.304
lwrist 42.4425
lhand -12.7427 72.3119
lfingers 7.12502
lthumb -166.659 78.1352
rfemur -28.3252 -1.4102 12.7799
rtibia 27.3106
rfoot -9.19621 -10.774
rtoes -5.08099
lfemur -27.9527 7.21004 -7.91388
ltibia 27.5497
lfoot -11.3473 -1.5596
ltoes -21.4963
50
root -6.26049 17.8343 0.192174 -90.1296 85.8883 -106.192
lowerback 0.897523 1.58074 -1.26954
upperback 3.41197 2.13148 4.55382
thorax 2.79507 1.01442 5.46356
lowerneck -17.3734 -1.42156 1.37706
upperneck 40.9637 0.830589 -3.47212
head 18.3158 0.643764 -1.52608
rclavicle -2.06736e-014 -2.62396e-014
rhumerus -4.41277 2.59284 -101.894
rradius 20.0182
rwrist -34.8023
rhand -18.1378 -11.1584
rfingers 7.12502
rthumb 8.13732 -40.9817
lclavicle -2.06736e-014 -2.62396e-014
lhumerus -8.14268 -42.1286 110.371
lradius 22.2419
lwrist 42.2422
lhand -12.5828 72.2577
lfingers 7.12502
lthumb -166.505 78.1996
rfemur -28.3539 -1.39576 12.7822
rtibia 27.325
rfoot -9.0553 -10.8028
rtoes -5.96173
lfemur -27.9925 7.27261 -7.92384
ltibia 27.5908
lfoot -11.3519 -1.63562
ltoes -21.0172
51
root -6.26073 17.8357 0.19045 -90.5236 85.8764 -106.589
lowerback 0.915458 1.59148 -1.24912
upperback 3.40201 2.14619 4.55407
thorax 2.77375 1.02291 5.45131
lowerneck -17.3922 -1.42653 1.32616
upperneck 40.9498 0.811322 -3.40781
head 18.3114 0.636311 -1.49025
rclavicle 1.70955e-014 5.08889e-014
rhumerus -4.4125 2.45628 -101.917
rradius 20.0891
rwrist -34.9861
rhand -18.315 -11.226
rfingers 7.12502
rthumb 7.96629 -41.0559
lclavicle 1.70955e-014 5.08889e-014
lhumerus -8.15431 -42.1817 110.382
lradius 22.2118
lwrist 42.0483
lhand -12.4925 72.2931
lfingers 7.12502
lthumb -166.418 78.17
rfemur -28.3579 -1.45602 12.7975
rtibia 27.3373
rfoot -10.5448 -9.99573
rtoes 18.9258
lfemur -28.0439 7.29045 -7.92702
ltibia 27.6599
lfoot -11.3515 -1.68969
ltoes -20.737
52
root -6.2614 17.8348 0.18658 -91.5891 85.8405 -107.659
lowerback 0.935759 1.57704 -1.16238
upperback 3.39607 2.12714 4.56423
thorax 2.76059 1.01618 5.41151
lowerneck -17.393 -1.4198 1.29053
upperneck 40.9134 0.82536 -3.39661
head 18.2906 0.636623 -1.4751
rclavicle 1.59028e-015 2.54444e-014
rhumerus -4.41994 2.42644 -101.912
rradius 20.1877
rwrist -35.2486
rhand -18.3855 -11.2833
rfingers 7.12502
rthumb 7.89829 -41.1157
lclavicle 1.59028e-015 2.54444e-014
lhumerus -8.17077 -42.4431 110.372
lradius 22.2435
lwrist 42.057
lhand -12.4178 72.2889
lfingers 7.12502
lthumb -166.346 78.179
rfemur -28.3533 -1.57843 12.8282
rtibia 27.3479
rfoot -10.0245 -10.1841
rtoes 12.703
lfemur -28.133 7.2784 -7.92887
ltibia 27.7506
lfoot -11.3498 -1.71415
ltoes -20.8519
53
root -6.2628 17.8339 0.182763 -92.4352 85.8646 -108.516
lowerback 0.947619 1.55337 -1.13583
upperback 3.39106 2.09555 4.55753
thorax 2.75298 1.0013 5.38849
lowerneck -17.3866 -1.3942 1.25845
upperneck 40.8921 0.873819 -3.39306
head 18.2785 0.650686 -1.45755
rclavicle -9.54166e-015 -3.33958e-014
rhumerus -4.52951 2.78673 -101.892
rradius 20.4556
rwrist -35.893
rhand -18.4359 -11.3523
rfingers 7.12502
rthumb 7.84959 -41.1866
lclavicle -9.54166e-015 -3.33958e-014
lhumerus -8.19667 -42.9167 110.294
lradius 22.3601
lwrist 42.277
lhand -12.3432 72.1853
lfingers 7.12502
lthumb -166.274 78.2875
rfemur -28.3681 -1.63751 12.7795
rtibia 27.3741
rfoot -10.3435 -10.0607
rtoes 15.7529
lfemur -28.1879 7.2563 -7.98411
ltibia 27.8368
lfoot -11.3985 -1.74534
ltoes -21.1051
54
root -6.26348 17.8326 0.181517 -92.5282 85.9225 -108.616
lowerback 0.946883 1.54197 -1.19071
upperback 3.38671 2.08033 4.54878
thorax 2.74898 0.992183 5.41033
lowerneck -17.3734 -1.37284 1.20401
upperneck 40.8885 0.92412 -3.38119
head 18.2751 0.663897 -1.43184
rclavicle 1.70955e-014 6.36111e-015
rhumerus -4.68314 3.15641 -101.865
rradius 20.7209
rwrist -36.5513
rhand -18.492 -11.3436
rfingers 7.12502
rthumb 7.79548 -41.1799
lclavicle 1.70955e-014 6.36111e-015
lhumerus -8.19961 -43.251 110.216
lradius 22.4192
lwrist 42.3175
lhand -12.17 72.0274
lfingers 7.12502
lthumb -166.107 78.4566
rfemur -28.3978 -1.60997 12.6981
rtibia 27.4186
rfoot -10.0221 -10.261
rtoes 11.244
lfemur -28.2097 7.35956 -8.0742
ltibia 27.9127
lfoot -11.4673 -1.88652
ltoes -21.2928
55
root -6.26325 17.8315 0.181711 -92.4874 85.9669 -108.578
lowerback 0.937667 1.53967 -1.25025
upperback 3.3906 2.07729 4.55491
thorax 2.75646 0.988773 5.45116
lowerneck -17.389 -1.37305 1.13651
upperneck 40.902 0.956737 -3.39059
head 18.2892 0.665288 -1.41785
rclavicle -2.74323e-014 -6.52014e-014
rhumerus -4.75796 3.0329 -101.818
rradius 20.7705
rwrist -36.7893
rhand -18.044 -10.9883
rfingers 7.12502
rthumb 8.22786 -40.808
lclavicle -2.74323e-014 -6.52014e-014
lhumerus -8.15267 -43.5217 110.174
lradius 22.4288
lwrist 42.1612
lhand -11.9034 71.9417
lfingers 7.12502
lthumb -165.85 78.5602
rfemur -28.4256 -1.59907 12.646
rtibia 27.4648
rfoot -10.0455 -10.1774
rtoes 13.4121
lfemur -28.257 7.57823 -8.17624
ltibia 27.9914
lfoot -11.5268 -2.10376
ltoes -21.2813
56
root -6.26396 17.8299 0.1804 -92.5971 86.0019 -108.686
lowerback 0.945532 1.55107 -1.24573
upperback 3.39958 2.09253 4.54931
thorax 2.76008 0.996446 5.44278
lowerneck -17.4048 -1.40799 1.0687
upperneck 40.8901 0.931264 -3.40112
head 18.2857 0.642549 -1.41555
rclavicle -9.14409e-015 -9.54166e-015
rhumerus -4.77581 2.67246 -101.805
rradius 20.7731
rwrist -36.9329
rhand -17.5729 -10.6708
rfingers 7.12502
rthumb 8.6825 -40.4722
lclavicle -9.14409e-015 -9.54166e-015
lhumerus -8.10909 -43.9896 110.144
lradius 22.5421
lwrist 41.689
lhand -11.4559 72.0953
lfingers 7.12502
lthumb -165.419 78.4372
rfemur -28.4439 -1.62806 12.6059
rtibia 27.5042
rfoot -9.04411 -10.4216
rtoes 4.10432
lfemur -28.3121 7.71784 -8.2586
ltibia 28.078
lfoot -11.5743 -2.21736
ltoes -21.3295
57
root -6.26506 17.827 0.179236 -92.0947 85.9834 -108.161
lowerback 0.997762 1.59288 -1.15788
upperback 3.39839 2.14884 4.52778
thorax 2.72716 1.02793 5.36845
lowerneck -17.4 -1.45457 1.02599
upperneck 40.8612 0.85882 -3.37289
head 18.2638 0.610335 -1.40837
rclavicle -4.37326e-015 5.56597e-015
rhumerus -4.90436 2.60171 -101.857
rradius 21.0519
rwrist -37.2181
rhand -17.8688 -10.9217
rfingers 7.12502
rthumb 8.39696 -40.7348
lclavicle -4.37326e-015 5.56597e-015
lhumerus -8.11106 -44.4631 110.085
lradius 22.5882
lwrist 41.1076
lhand -10.8905 72.2738
lfingers 7.12502
lthumb -164.874 78.299
rfemur -28.4446 -1.57962 12.6194
rtibia 27.5344
rfoot -10.2527 -10.214
rtoes 11.227
lfemur -28.3399 7.82844 -8.25502
ltibia 28.1721
lfoot -11.6036 -2.25387
ltoes -21.3478
58
root -6.26583 17.825 0.181772 -90.8279 85.922 -106.864
lowerback 1.03237 1.63276 -1.10357
upperback 3.4055 2.20262 4.53027
thorax 2.71132 1.05675 5.33941
lowerneck -17.3997 -1.45956 1.03501
upperneck 40.8557 0.846145 -3.37075
head 18.2598 0.60692 -1.41141
rclavicle 3.77691e-014 8.26944e-014
rhumerus -5.18833 2.7185 -101.878
rradius 21.5911
rwrist -37.8422
rhand -18.1293 -11.2033
rfingers 7.12502
rthumb 8.14556 -41.0263
lclavicle 3.77691e-014 8.26944e-014
lhumerus -8.10246 -45.1708 109.883
lradius 22.5585
lwrist 41.2941
lhand -10.3693 71.9941
lfingers 7.12502
lthumb -164.372 78.6172
rfemur -28.4593 -1.49896 12.7014
rtibia 27.5755
rfoot -10.2723 -10.0167
rtoes 14.3589
lfemur -28.3515 8.02208 -8.19165
ltibia 28.2683
lfoot -11.6221 -2.32371
ltoes -21.4021
